<?xml version="1.0" encoding="UTF-8"?>
<svg id="Layer_1" xmlns="http://www.w3.org/2000/svg" version="1.1" viewBox="0 0 144 94.5">
  <!-- Generator: Adobe Illustrator 30.7.0, SVG Export Plug-In . SVG Version: 2.1.4 Build 114)  -->
  <defs>
    <style>
      .st0 {
        fill: #6fccdc;
      }
    </style>
  </defs>
  <rect class="st0" y="9" width="9" height="36"/>
  <rect class="st0" x="9" width="9" height="9"/>
  <rect class="st0" x="18" y="9" width="9" height="18"/>
  <rect class="st0" x="27" width="9" height="9"/>
  <rect class="st0" x="36" y="9" width="9" height="36"/>
  <rect class="st0" x="49.5" y="9" width="9" height="27"/>
  <polygon class="st0" points="85.5 9 85.5 0 67.5 0 58.5 0 58.5 9 67.5 9 85.5 9"/>
  <rect class="st0" x="85.5" y="9" width="9" height="27"/>
  <polygon class="st0" points="58.5 36 58.5 45 67.5 45 85.5 45 85.5 36 67.5 36 58.5 36"/>
  <rect class="st0" x="99" y="27" width="9" height="9"/>
  <rect class="st0" x="108" y="36" width="36" height="9"/>
  <rect class="st0" x="108" y="18" width="27" height="9"/>
  <rect class="st0" x="135" y="9" width="9" height="9"/>
  <rect class="st0" x="99" width="36" height="9"/>
  <rect class="st0" x="9" y="49.5" width="27" height="9"/>
  <polygon class="st0" points="36 67.5 9 67.5 9 58.5 0 58.5 0 94.5 9 94.5 9 76.5 36 76.5 36 94.5 45 94.5 45 76.5 45 67.5 45 58.5 36 58.5 36 67.5"/>
  <polygon class="st0" points="58.5 49.5 49.5 49.5 49.5 58.5 49.5 67.5 58.5 67.5 58.5 58.5 58.5 49.5"/>
  <polygon class="st0" points="85.5 58.5 85.5 67.5 94.5 67.5 94.5 58.5 94.5 49.5 85.5 49.5 85.5 58.5"/>
  <rect class="st0" x="58.5" y="67.5" width="9" height="9"/>
  <rect class="st0" x="76.5" y="67.5" width="9" height="9"/>
  <rect class="st0" x="67.5" y="76.5" width="9" height="18"/>
  <polygon class="st0" points="108 67.5 108 49.5 99 49.5 99 94.5 108 94.5 108 76.5 117 76.5 126 76.5 126 67.5 117 67.5 108 67.5"/>
  <rect class="st0" x="135" y="49.5" width="9" height="9"/>
  <rect class="st0" x="126" y="58.5" width="9" height="9"/>
  <rect class="st0" x="126" y="76.5" width="9" height="9"/>
  <rect class="st0" x="135" y="85.5" width="9" height="9"/>
</svg>